<svg width="280" height="197" viewBox="0 0 280 197" fill="none" xmlns="http://www.w3.org/2000/svg">
<path d="M239.894 13H37.1062C34.6911 13 32.3749 13.9567 30.6671 15.6597C28.9594 17.3627 28 19.6724 28 22.0808V143.919C28 146.328 28.9594 148.637 30.6671 150.34C32.3749 152.043 34.6911 153 37.1062 153H239.894C242.309 153 244.625 152.043 246.333 150.34C248.041 148.637 249 146.328 249 143.919V22.0808C249 19.6724 248.041 17.3627 246.333 15.6597C244.625 13.9567 242.309 13 239.894 13Z" fill="white"/>
<path d="M46.2394 78.995C42.4805 78.9978 38.7667 78.1852 35.3593 76.6145C31.9519 75.0439 28.9336 72.7532 26.517 69.9038C26.3164 69.6679 26.2186 69.3628 26.245 69.0555C26.2715 68.7482 26.4201 68.4639 26.6581 68.2649C26.8965 68.0664 27.2048 67.9696 27.5153 67.9958C27.8258 68.0219 28.113 68.169 28.3141 68.4046C30.5096 70.9942 33.2519 73.0761 36.348 74.5037C39.4441 75.9314 42.8187 76.6701 46.2343 76.6678C59.1454 76.6678 69.6476 66.2729 69.6476 53.495C69.6476 40.7171 59.1454 30.3232 46.2343 30.3232C39.169 30.3232 32.5573 33.4324 28.0883 38.8548C27.8908 39.0938 27.6057 39.2457 27.2953 39.2771C26.9849 39.3085 26.6746 39.2169 26.4324 39.0224C26.1911 38.8269 26.0379 38.5449 26.0061 38.238C25.9744 37.9311 26.0668 37.6242 26.263 37.3845C28.6759 34.4473 31.7211 32.0804 35.1763 30.4569C38.6315 28.8333 42.4095 27.9939 46.2343 28C60.4435 28 72 39.4373 72 53.5C72 67.5627 60.4435 79 46.2343 79L46.2384 78.995H46.2394Z" fill="#142641"/>
<path d="M88.5252 112.735C88.2152 112.735 87.9181 112.612 87.699 112.392C87.4799 112.173 87.3568 111.875 87.3568 111.564C87.3568 93.986 69.0527 79.6866 46.5599 79.6866C39.9752 79.6866 33.6902 80.8757 27.8771 83.2216C27.735 83.2794 27.5829 83.3086 27.4295 83.3074C27.2762 83.3062 27.1245 83.2746 26.9834 83.2146C26.8422 83.1545 26.7143 83.0672 26.607 82.9575C26.4996 82.8478 26.415 82.718 26.3579 82.5754C26.3 82.4331 26.2708 82.2807 26.2719 82.127C26.273 81.9734 26.3045 81.8214 26.3645 81.68C26.4244 81.5385 26.5117 81.4103 26.6214 81.3028C26.731 81.1952 26.8608 81.1104 27.0032 81.0533C33.0959 78.595 39.6756 77.3447 46.5599 77.3447C70.3434 77.3447 89.6947 92.6937 89.6947 111.564C89.6947 112.211 89.1706 112.735 88.5252 112.735ZM248.678 41.3409H113.792C113.488 41.332 113.199 41.2048 112.987 40.9862C112.775 40.7677 112.657 40.4751 112.657 40.1705C112.657 39.8658 112.775 39.5732 112.987 39.3547C113.199 39.1361 113.488 39.0089 113.792 39H248.682C248.986 39.0089 249.275 39.1361 249.487 39.3547C249.699 39.5732 249.818 39.8658 249.818 40.1705C249.818 40.4751 249.699 40.7677 249.487 40.9862C249.275 41.2048 248.986 41.332 248.682 41.3409H248.678ZM248.865 68.4948H114.086C113.782 68.4859 113.494 68.3586 113.282 68.1401C113.07 67.9216 112.951 67.6289 112.951 67.3243C112.951 67.0197 113.07 66.7271 113.282 66.5085C113.494 66.29 113.782 66.1628 114.086 66.1539H248.865C249.169 66.1628 249.458 66.29 249.669 66.5085C249.881 66.7271 250 67.0197 250 67.3243C250 67.6289 249.881 67.9216 249.669 68.1401C249.458 68.3586 249.169 68.4859 248.865 68.4948ZM216.874 95.4239H114.115C113.811 95.415 113.523 95.2877 113.311 95.0692C113.099 94.8507 112.98 94.5581 112.98 94.2534C112.98 93.9488 113.099 93.6562 113.311 93.4376C113.523 93.2191 113.811 93.0919 114.115 93.083H216.874C217.178 93.0919 217.467 93.2191 217.679 93.4376C217.891 93.6562 218.009 93.9488 218.009 94.2534C218.009 94.5581 217.891 94.8507 217.679 95.0692C217.467 95.2877 217.178 95.415 216.874 95.4239ZM216.92 146C216.447 146 215.998 145.709 215.826 145.236C215.719 144.945 215.731 144.623 215.86 144.341C215.989 144.058 216.224 143.838 216.513 143.728C220.437 142.263 223.944 139.814 226.703 136.715C225.216 136.499 223.467 135.956 222.246 134.682C221.222 133.61 220.745 132.177 220.867 130.538C220.965 129.222 221.517 127.883 222.462 126.666C222.667 126.404 222.869 126.132 223.069 125.856C224.009 124.592 225.071 123.159 226.581 122.236C228.088 121.313 229.845 121.089 231.281 121.637C232.207 121.993 233.433 122.831 234.031 124.82C234.447 126.207 234.382 127.738 233.84 129.241C233.207 130.999 232.393 132.685 231.412 134.274C234.543 133.827 237.55 132.747 240.251 131.1C240.536 130.922 240.872 130.844 241.206 130.88C241.539 130.916 241.852 131.062 242.093 131.296C242.598 131.779 242.706 132.514 242.369 133.127C241.588 134.551 241.503 135.633 242.126 136.349C242.673 136.981 243.697 137.14 244.604 136.733C246.091 136.072 246.896 134.654 247.546 133.217C247.674 132.934 247.909 132.713 248.199 132.603C248.489 132.493 248.811 132.503 249.094 132.631C249.377 132.759 249.597 132.994 249.707 133.285C249.816 133.576 249.806 133.898 249.678 134.181C248.879 135.951 247.76 137.895 245.549 138.873C243.678 139.702 241.593 139.303 240.363 137.885C239.493 136.883 239.199 135.609 239.483 134.181C236.416 135.7 233.075 136.588 229.659 136.794C226.488 140.873 222.204 144.085 217.327 145.906C217.197 145.956 217.059 145.981 216.92 145.981V146ZM229.626 123.688C229.037 123.688 228.386 123.875 227.797 124.235C226.675 124.924 225.796 126.109 224.945 127.256C224.73 127.542 224.519 127.827 224.309 128.103C223.649 128.955 223.266 129.859 223.2 130.716C223.125 131.7 223.364 132.467 223.935 133.062C224.8 133.965 226.474 134.495 228.461 134.509C229.793 132.647 230.861 130.609 231.637 128.455C231.893 127.733 232.132 126.637 231.791 125.5C231.529 124.634 231.08 124.072 230.444 123.828C230.182 123.733 229.905 123.685 229.626 123.688ZM88.5252 141.439H27.2037C27.0473 141.443 26.8916 141.416 26.7457 141.36C26.5999 141.303 26.4669 141.217 26.3547 141.108C26.2425 140.999 26.1532 140.868 26.0923 140.724C26.0314 140.58 26 140.425 26 140.268C26 140.111 26.0314 139.956 26.0923 139.812C26.1532 139.668 26.2425 139.537 26.3547 139.428C26.4669 139.319 26.5999 139.233 26.7457 139.177C26.8916 139.12 27.0473 139.093 27.2037 139.098H88.5252C88.8293 139.107 89.118 139.234 89.3299 139.452C89.5419 139.671 89.6604 139.963 89.6604 140.268C89.6604 140.573 89.5419 140.865 89.3299 141.084C89.118 141.302 88.8293 141.43 88.5252 141.439Z" fill="#142641"/>
<path d="M150 175.5C150 182.956 143.956 189 136.5 189C129.045 189 123 182.956 123 175.5C123 168.044 129.045 162 136.5 162C143.956 162 150 168.044 150 175.5Z" fill="#F43F5E"/>
<path d="M239.717 153.996H36.2832C30.6155 153.996 26 149.422 26 143.796V22.2005C26 16.5784 30.6105 12 36.2832 12H239.717C245.384 12 250 16.5744 250 22.2005V143.799C250 149.422 245.388 154 239.717 154V153.996ZM36.2832 14.324C31.9012 14.324 28.3378 17.8587 28.3378 22.2055V143.799C28.3378 148.146 31.9012 151.681 36.2832 151.681H239.717C244.098 151.681 247.661 148.146 247.661 143.799V22.2005C247.661 17.8547 244.098 14.32 239.717 14.32H36.2832V14.324Z" fill="#F43F5E"/>
<path d="M138.103 175.501L140.666 172.937C140.771 172.831 140.855 172.707 140.912 172.569C140.97 172.431 140.999 172.284 140.999 172.135C140.999 171.986 140.97 171.838 140.912 171.7C140.855 171.563 140.771 171.438 140.666 171.333C140.561 171.227 140.436 171.144 140.298 171.086C140.161 171.029 140.013 171 139.864 171C139.715 171 139.568 171.029 139.43 171.086C139.293 171.144 139.168 171.227 139.063 171.333L136.5 173.897L133.937 171.333C133.832 171.227 133.707 171.144 133.57 171.086C133.432 171.029 133.285 171 133.136 171C132.987 171 132.839 171.029 132.702 171.086C132.564 171.144 132.439 171.227 132.334 171.333C132.229 171.438 132.145 171.563 132.088 171.7C132.03 171.838 132.001 171.986 132.001 172.135C132.001 172.284 132.03 172.431 132.088 172.569C132.145 172.707 132.229 172.831 132.334 172.937L134.897 175.501L132.334 178.066C132.175 178.224 132.066 178.426 132.022 178.646C131.978 178.866 132 179.095 132.086 179.302C132.172 179.51 132.318 179.687 132.505 179.811C132.692 179.935 132.911 180.001 133.136 180C133.425 180 133.715 179.891 133.937 179.67L136.5 177.105L139.063 179.67C139.285 179.891 139.575 180 139.864 180C140.089 180.001 140.308 179.935 140.495 179.811C140.682 179.687 140.828 179.51 140.914 179.302C141 179.095 141.022 178.866 140.978 178.646C140.934 178.426 140.825 178.224 140.666 178.066L138.103 175.501Z" fill="white"/>
</svg>
